<?xml version="1.0" encoding="UTF-8" standalone="no"?>
<svg
   xmlns:dc="http://purl.org/dc/elements/1.1/"
   xmlns:cc="http://creativecommons.org/ns#"
   xmlns:rdf="http://www.w3.org/1999/02/22-rdf-syntax-ns#"
   xmlns:svg="http://www.w3.org/2000/svg"
   xmlns="http://www.w3.org/2000/svg"
   viewBox="160 -30 255 230"
   height="230"
   width="255"
   xml:space="preserve"
   id="svg2"
   version="1.1"><metadata
     id="metadata8"><rdf:RDF><cc:Work
         rdf:about=""><dc:format>image/svg+xml</dc:format><dc:type
           rdf:resource="http://purl.org/dc/dcmitype/StillImage" /></cc:Work></rdf:RDF></metadata><defs
     id="defs6" /><g
     transform="matrix(1.3333333,0,0,-1.3333333,0,257.33333)"
     id="g10"><g
       transform="scale(0.1)"
       id="g12"><path
         id="path14"
         style="fill:#2359a8;fill-opacity:1;fill-rule:evenodd;stroke:none"
         d="m 1527.07,1234.49 h 780 l -70.51,-115 h -780 l 70.51,115 M 1360.08,962.5 h 780 l -70.51,-115 h -780 l 70.51,115 m 333.98,543.98 h 780 l -70.47,-115 h -780 l 70.47,115" /><path
         id="path16"
         style="fill:#0c3559;fill-opacity:1;fill-rule:evenodd;stroke:none"
         d="m 2818.59,1498.48 c 27,-52.66 45.67,-107 55.98,-162.97 10,-56.37 12.19,-112.7 6.52,-169.03 -5.66,-56.32 -18.67,-111.32 -39.02,-165 l 34.02,-65.968 c 31.33,61.328 52.97,125.308 65,191.988 11.64,66.64 12.82,133.83 3.48,201.48 -9.34,67.35 -30.16,132.35 -62.5,195 -32.66,62 -73.32,115.67 -121.99,161.02 -48.67,45 -103.01,80.82 -163.01,107.5 -59.65,26.99 -122.66,44.14 -188.98,51.48 l 26.48,-50.97 c 54.02,-12.35 105,-31.68 153.01,-58.01 48.32,-26.33 91.99,-59.34 131.01,-99.02 39.34,-39.65 72.66,-85.47 100,-137.5 m 23.48,-497 -407.5,791.53 c -47.66,10.66 -96.33,15.47 -145.98,14.49 l -182.03,-294.49 h 379.53 L 2407.07,1385 h -378.98 l -89.03,-144.02 h 380 l -78.47,-127.97 h -380 l -89.03,-144.03 h 380.51 l -78.48,-128 h -380.5 l -60,-97 h 1030 c 40.66,36.02 75.97,75.668 105.97,119.032 30,43.629 54.34,89.797 73.01,138.468 m -823.01,762.5 c -55.31,-30.97 -104.65,-67.81 -147.97,-110.5 -43,-42.66 -79.68,-89.5 -110,-140.47 h 1.49 c 28.32,43.32 61.83,83.16 100.51,119.49 38.67,36.64 82.14,68.32 130.5,95 47.31,26.33 95.82,45.98 145.47,58.98 50,13.36 99.85,20.36 149.53,21.02 l 23.99,39.49 c -49.65,-1.99 -99.18,-9.84 -148.52,-23.51 -49.33,-13.64 -97.65,-33.48 -145,-59.5 m 389.03,80 -44.03,86.02 -51.48,-83.01 c 32.34,1.33 64.18,0.35 95.51,-3.01 m 468,-908.468 c -18.36,-35.352 -39.68,-69.18 -64.02,-101.532 -24.34,-31.992 -51.64,-61.992 -81.99,-90 h 244.49 l -98.48,191.532 M 1746.56,1487.5 c 2.7,4.34 5.35,8.48 8.01,12.5 h -0.98 c -2.34,-4.02 -4.68,-8.16 -7.03,-12.5 m 916.53,-743.52 h 66.99 c -39.34,-36.32 -83.32,-68.16 -131.99,-95.5 -70.67,-38.64 -143.36,-63.832 -218.01,-75.468 -74.65,-11.684 -147.85,-10.672 -219.49,2.968 -72,13.36 -139.18,38.508 -201.53,75.5 58.36,-30.968 120.67,-51.832 187.03,-62.5 65.98,-10.308 133.17,-9.64 201.49,2 68.32,11.68 134.84,35.348 199.49,71.008 42.34,23.672 81.02,51.024 116.02,81.992" /></g></g></svg>
